<svg width="1253" height="1080" viewBox="0 0 1253 1080" fill="none" xmlns="http://www.w3.org/2000/svg">
<path d="M628.107 831.985L716.101 821.308L703.94 845.437C703.94 845.437 658.577 864.107 628.107 864.017C597.999 863.928 553.229 845.437 553.229 845.437L542.975 822.273L628.107 831.985Z" fill="#959DA5"/>
<path d="M627.25 799.571L767.963 772.115L748.515 810.249C748.515 810.249 675.975 839.754 627.25 839.612C579.103 839.472 507.51 810.249 507.51 810.249L491.113 773.641L627.25 799.571Z" fill="#B6BFC4"/>
<path d="M326.757 725.592C334.429 642.691 431.243 468.953 431.243 468.953L456.412 737.413L338.96 830.078C338.96 830.078 322.303 773.726 326.757 725.592Z" fill="url(#paint0_linear_53_30)"/>
<path d="M927.749 725.592C920.078 642.691 823.263 468.953 823.263 468.953L798.095 737.413L915.546 830.078C915.546 830.078 932.204 773.726 927.749 725.592Z" fill="url(#paint1_linear_53_30)"/>
<path d="M837.747 507.468C833.396 308.677 629.156 43 629.156 43C629.156 43 423.779 308.338 418.277 507.468C415.455 609.622 463.275 765.251 463.275 765.251C463.275 765.251 563.005 799.912 629.156 799.571C693.705 799.24 790.843 765.251 790.843 765.251C790.843 765.251 839.987 609.767 837.747 507.468Z" fill="url(#paint2_linear_53_30)"/>
<path d="M729.067 218.034L711.335 185.91L692.84 183.713L711.335 216.127L729.067 218.034Z" fill="#B7BFC4"/>
<path d="M708.093 215.746L690.361 183.622L671.866 181.425L690.361 213.839L708.093 215.746Z" fill="#B7BFC4"/>
<path d="M685.213 214.22L667.481 182.097L648.986 179.9L667.481 212.313L685.213 214.22Z" fill="#B7BFC4"/>
<rect x="626.688" y="871.691" width="14.6674" height="209.226" transform="rotate(54.4276 626.688 871.691)" fill="url(#paint3_linear_53_30)"/>
<rect width="14.6674" height="209.226" transform="matrix(-0.581731 0.813381 0.813381 0.581731 465.04 871.691)" fill="url(#paint4_linear_53_30)"/>
<rect x="797.527" y="871.691" width="14.6674" height="209.226" transform="rotate(54.4276 797.527 871.691)" fill="url(#paint5_linear_53_30)"/>
<rect width="14.6674" height="209.226" transform="matrix(-0.581731 0.813381 0.813381 0.581731 635.878 871.691)" fill="url(#paint6_linear_53_30)"/>
<rect x="615.987" y="798.809" width="21.7829" height="237.191" fill="url(#paint7_linear_53_30)"/>
<rect x="618.104" y="801.859" width="17.5415" height="6.86406" fill="#B6BFC4"/>
<rect x="445.739" y="885.753" width="21.3548" height="367.608" transform="rotate(-90 445.739 885.753)" fill="url(#paint8_linear_53_30)"/>
<rect x="791.401" y="798.809" width="21.7829" height="237.191" fill="url(#paint9_linear_53_30)"/>
<rect x="793.518" y="801.859" width="17.5415" height="6.86406" fill="#B6BFC4"/>
<rect x="445.771" y="798.809" width="21.7829" height="237.191" fill="url(#paint10_linear_53_30)"/>
<rect x="448.027" y="801.859" width="17.5415" height="6.86406" fill="#B6BFC4"/>
<rect width="12.1689" height="191.825" transform="matrix(0.701172 0.712992 -0.887167 0.461448 901.25 925.078)" fill="url(#paint11_linear_53_30)"/>
<rect width="12.1689" height="191.825" transform="matrix(-0.701172 0.712992 0.887167 0.461448 739.602 925.078)" fill="url(#paint12_linear_53_30)"/>
<rect x="890.549" y="852.196" width="21.7829" height="183.804" fill="url(#paint13_linear_53_30)"/>
<rect x="892.666" y="854.56" width="17.5415" height="5.31909" fill="#B6BFC4"/>
<rect x="720.302" y="939.141" width="21.3548" height="192.194" transform="rotate(-90 720.302 939.141)" fill="url(#paint14_linear_53_30)"/>
<rect x="720.333" y="852.196" width="21.7829" height="183.804" fill="url(#paint15_linear_53_30)"/>
<rect x="722.59" y="854.56" width="17.5415" height="5.31909" fill="#B6BFC4"/>
<rect width="12.1689" height="191.825" transform="matrix(0.701172 0.712992 -0.887167 0.461448 515.338 925.078)" fill="url(#paint16_linear_53_30)"/>
<rect width="12.1689" height="191.825" transform="matrix(-0.701172 0.712992 0.887167 0.461448 353.689 925.078)" fill="url(#paint17_linear_53_30)"/>
<rect x="333.798" y="852.196" width="21.7829" height="183.804" fill="url(#paint18_linear_53_30)"/>
<rect x="335.915" y="854.56" width="17.5415" height="5.31909" fill="#B6BFC4"/>
<rect x="333.626" y="939.141" width="21.3548" height="197.532" transform="rotate(-90 333.626 939.141)" fill="url(#paint19_linear_53_30)"/>
<rect x="509.212" y="852.196" width="21.7829" height="183.804" fill="url(#paint20_linear_53_30)"/>
<rect x="511.329" y="854.56" width="17.5415" height="5.31909" fill="#B6BFC4"/>
<g filter="url(#filter0_d_53_30)">
<rect x="950" y="392" width="230" height="146" rx="10" fill="white"/>
</g>
<circle cx="964" cy="406" r="3" fill="#FF593E"/>
<circle cx="972" cy="406" r="3" fill="#F4C726"/>
<circle cx="980" cy="406" r="3" fill="#66EE84"/>
<rect x="961" y="419" width="143" height="5" rx="2.5" fill="#E3E5E7"/>
<rect x="961" y="429" width="88" height="5" rx="2.5" fill="#E3E5E7"/>
<rect x="1057" y="429" width="37" height="5" rx="2.5" fill="#E3E5E7"/>
<rect x="961" y="444" width="100" height="83" rx="5" fill="#F0F0F0"/>
<rect x="1070" y="444" width="100" height="83" rx="5" fill="#F0F0F0"/>
<g filter="url(#filter1_d_53_30)">
<rect x="971" y="666" width="190.616" height="121" rx="10" fill="white"/>
</g>
<circle cx="982.603" cy="677.603" r="2.4863" fill="#FF593E"/>
<circle cx="989.233" cy="677.603" r="2.4863" fill="#F4C726"/>
<circle cx="995.863" cy="677.603" r="2.4863" fill="#66EE84"/>
<rect x="1011" y="692" width="3" height="3" rx="1.5" fill="#E3E5E7"/>
<rect x="1021" y="692" width="73" height="3" rx="1.5" fill="#E3E5E7"/>
<rect x="1101" y="692" width="48" height="3" rx="1.5" fill="#E3E5E7"/>
<rect x="1011" y="698" width="3" height="3" rx="1.5" fill="#E3E5E7"/>
<rect x="1021" y="698" width="20" height="3" rx="1.5" fill="#E3E5E7"/>
<rect x="1048" y="698" width="33" height="3" rx="1.5" fill="#E3E5E7"/>
<rect x="1088" y="698" width="41" height="3" rx="1.5" fill="#E3E5E7"/>
<rect x="980" y="690" width="22" height="85" rx="2" fill="#D4D8DB"/>
<path d="M1009.5 765.5L1026 737.5L1047.5 751L1070.5 722.5L1092.5 737.5L1134.5 706" stroke="#F5F5F5"/>
<g filter="url(#filter2_d_53_30)">
<circle cx="1070.5" cy="722.5" r="3.5" fill="#6638EB"/>
<circle cx="1070.5" cy="722.5" r="2.85185" stroke="white" stroke-width="1.2963"/>
</g>
<g filter="url(#filter3_d_53_30)">
<circle cx="1026.5" cy="736.5" r="3.5" fill="#FF593E"/>
<circle cx="1026.5" cy="736.5" r="2.85185" stroke="white" stroke-width="1.2963"/>
</g>
<path d="M1064.25 539.5L1064.75 652" stroke="#BFC6CB" stroke-dasharray="7 7"/>
<g filter="url(#filter4_d_53_30)">
<circle cx="1064.5" cy="665.5" r="13.5" fill="#6638EB"/>
<circle cx="1064.5" cy="665.5" r="11" stroke="white" stroke-width="5"/>
</g>
<defs>
<filter id="filter0_d_53_30" x="920" y="349" width="330" height="246" filterUnits="userSpaceOnUse" color-interpolation-filters="sRGB">
<feFlood flood-opacity="0" result="BackgroundImageFix"/>
<feColorMatrix in="SourceAlpha" type="matrix" values="0 0 0 0 0 0 0 0 0 0 0 0 0 0 0 0 0 0 127 0" result="hardAlpha"/>
<feOffset dx="20" dy="7"/>
<feGaussianBlur stdDeviation="25"/>
<feComposite in2="hardAlpha" operator="out"/>
<feColorMatrix type="matrix" values="0 0 0 0 0 0 0 0 0 0 0 0 0 0 0 0 0 0 0.05 0"/>
<feBlend mode="normal" in2="BackgroundImageFix" result="effect1_dropShadow_53_30"/>
<feBlend mode="normal" in="SourceGraphic" in2="effect1_dropShadow_53_30" result="shape"/>
</filter>
<filter id="filter1_d_53_30" x="941" y="623" width="290.616" height="221" filterUnits="userSpaceOnUse" color-interpolation-filters="sRGB">
<feFlood flood-opacity="0" result="BackgroundImageFix"/>
<feColorMatrix in="SourceAlpha" type="matrix" values="0 0 0 0 0 0 0 0 0 0 0 0 0 0 0 0 0 0 127 0" result="hardAlpha"/>
<feOffset dx="20" dy="7"/>
<feGaussianBlur stdDeviation="25"/>
<feComposite in2="hardAlpha" operator="out"/>
<feColorMatrix type="matrix" values="0 0 0 0 0 0 0 0 0 0 0 0 0 0 0 0 0 0 0.05 0"/>
<feBlend mode="normal" in2="BackgroundImageFix" result="effect1_dropShadow_53_30"/>
<feBlend mode="normal" in="SourceGraphic" in2="effect1_dropShadow_53_30" result="shape"/>
</filter>
<filter id="filter2_d_53_30" x="1065.7" y="718.741" width="9.59259" height="9.59259" filterUnits="userSpaceOnUse" color-interpolation-filters="sRGB">
<feFlood flood-opacity="0" result="BackgroundImageFix"/>
<feColorMatrix in="SourceAlpha" type="matrix" values="0 0 0 0 0 0 0 0 0 0 0 0 0 0 0 0 0 0 127 0" result="hardAlpha"/>
<feOffset dy="1.03704"/>
<feGaussianBlur stdDeviation="0.648148"/>
<feComposite in2="hardAlpha" operator="out"/>
<feColorMatrix type="matrix" values="0 0 0 0 0 0 0 0 0 0 0 0 0 0 0 0 0 0 0.06 0"/>
<feBlend mode="normal" in2="BackgroundImageFix" result="effect1_dropShadow_53_30"/>
<feBlend mode="normal" in="SourceGraphic" in2="effect1_dropShadow_53_30" result="shape"/>
</filter>
<filter id="filter3_d_53_30" x="1021.7" y="732.741" width="9.59259" height="9.59259" filterUnits="userSpaceOnUse" color-interpolation-filters="sRGB">
<feFlood flood-opacity="0" result="BackgroundImageFix"/>
<feColorMatrix in="SourceAlpha" type="matrix" values="0 0 0 0 0 0 0 0 0 0 0 0 0 0 0 0 0 0 127 0" result="hardAlpha"/>
<feOffset dy="1.03704"/>
<feGaussianBlur stdDeviation="0.648148"/>
<feComposite in2="hardAlpha" operator="out"/>
<feColorMatrix type="matrix" values="0 0 0 0 0 0 0 0 0 0 0 0 0 0 0 0 0 0 0.06 0"/>
<feBlend mode="normal" in2="BackgroundImageFix" result="effect1_dropShadow_53_30"/>
<feBlend mode="normal" in="SourceGraphic" in2="effect1_dropShadow_53_30" result="shape"/>
</filter>
<filter id="filter4_d_53_30" x="1046" y="651" width="37" height="37" filterUnits="userSpaceOnUse" color-interpolation-filters="sRGB">
<feFlood flood-opacity="0" result="BackgroundImageFix"/>
<feColorMatrix in="SourceAlpha" type="matrix" values="0 0 0 0 0 0 0 0 0 0 0 0 0 0 0 0 0 0 127 0" result="hardAlpha"/>
<feOffset dy="4"/>
<feGaussianBlur stdDeviation="2.5"/>
<feComposite in2="hardAlpha" operator="out"/>
<feColorMatrix type="matrix" values="0 0 0 0 0 0 0 0 0 0 0 0 0 0 0 0 0 0 0.06 0"/>
<feBlend mode="normal" in2="BackgroundImageFix" result="effect1_dropShadow_53_30"/>
<feBlend mode="normal" in="SourceGraphic" in2="effect1_dropShadow_53_30" result="shape"/>
</filter>
<linearGradient id="paint0_linear_53_30" x1="481.961" y1="558.948" x2="352.688" y2="833.129" gradientUnits="userSpaceOnUse">
<stop stop-color="#CED1D5"/>
<stop offset="1" stop-color="#F0F0F0"/>
</linearGradient>
<linearGradient id="paint1_linear_53_30" x1="772.545" y1="558.948" x2="901.819" y2="833.129" gradientUnits="userSpaceOnUse">
<stop stop-color="#B6BFC4"/>
<stop offset="1" stop-color="#F0F0F0"/>
</linearGradient>
<linearGradient id="paint2_linear_53_30" x1="417.896" y1="483.444" x2="726.779" y2="762.582" gradientUnits="userSpaceOnUse">
<stop stop-color="#F0F0F0"/>
<stop offset="1" stop-color="#D1D5DA"/>
</linearGradient>
<linearGradient id="paint3_linear_53_30" x1="626.667" y1="951.076" x2="688.296" y2="950.488" gradientUnits="userSpaceOnUse">
<stop stop-color="#EDF0F2"/>
<stop offset="1" stop-color="#D6D9DE"/>
</linearGradient>
<linearGradient id="paint4_linear_53_30" x1="-0.0210633" y1="79.385" x2="61.6083" y2="78.7969" gradientUnits="userSpaceOnUse">
<stop stop-color="#EDF0F2"/>
<stop offset="1" stop-color="#D6D9DE"/>
</linearGradient>
<linearGradient id="paint5_linear_53_30" x1="797.506" y1="951.076" x2="859.135" y2="950.488" gradientUnits="userSpaceOnUse">
<stop stop-color="#EDF0F2"/>
<stop offset="1" stop-color="#D6D9DE"/>
</linearGradient>
<linearGradient id="paint6_linear_53_30" x1="-0.0210633" y1="79.385" x2="61.6083" y2="78.7969" gradientUnits="userSpaceOnUse">
<stop stop-color="#EDF0F2"/>
<stop offset="1" stop-color="#D6D9DE"/>
</linearGradient>
<linearGradient id="paint7_linear_53_30" x1="615.956" y1="888.804" x2="707.476" y2="887.66" gradientUnits="userSpaceOnUse">
<stop stop-color="#EDF0F2"/>
<stop offset="1" stop-color="#D6D9DE"/>
</linearGradient>
<linearGradient id="paint8_linear_53_30" x1="481.437" y1="1057.58" x2="395.484" y2="1066.87" gradientUnits="userSpaceOnUse">
<stop stop-color="#EDF0F2"/>
<stop offset="1" stop-color="#D6D9DE"/>
</linearGradient>
<linearGradient id="paint9_linear_53_30" x1="791.37" y1="888.804" x2="882.891" y2="887.66" gradientUnits="userSpaceOnUse">
<stop stop-color="#EDF0F2"/>
<stop offset="1" stop-color="#D6D9DE"/>
</linearGradient>
<linearGradient id="paint10_linear_53_30" x1="445.739" y1="888.804" x2="537.26" y2="887.66" gradientUnits="userSpaceOnUse">
<stop stop-color="#EDF0F2"/>
<stop offset="1" stop-color="#D6D9DE"/>
</linearGradient>
<linearGradient id="paint11_linear_53_30" x1="-0.0174753" y1="72.7825" x2="51.1145" y2="72.341" gradientUnits="userSpaceOnUse">
<stop stop-color="#EDF0F2"/>
<stop offset="1" stop-color="#D6D9DE"/>
</linearGradient>
<linearGradient id="paint12_linear_53_30" x1="-0.0174753" y1="72.7825" x2="51.1145" y2="72.341" gradientUnits="userSpaceOnUse">
<stop stop-color="#EDF0F2"/>
<stop offset="1" stop-color="#D6D9DE"/>
</linearGradient>
<linearGradient id="paint13_linear_53_30" x1="890.518" y1="921.935" x2="982.029" y2="920.459" gradientUnits="userSpaceOnUse">
<stop stop-color="#EDF0F2"/>
<stop offset="1" stop-color="#D6D9DE"/>
</linearGradient>
<linearGradient id="paint14_linear_53_30" x1="756" y1="1028.98" x2="672.606" y2="1046.21" gradientUnits="userSpaceOnUse">
<stop stop-color="#EDF0F2"/>
<stop offset="1" stop-color="#D6D9DE"/>
</linearGradient>
<linearGradient id="paint15_linear_53_30" x1="720.302" y1="921.935" x2="811.813" y2="920.459" gradientUnits="userSpaceOnUse">
<stop stop-color="#EDF0F2"/>
<stop offset="1" stop-color="#D6D9DE"/>
</linearGradient>
<linearGradient id="paint16_linear_53_30" x1="-0.0174753" y1="72.7825" x2="51.1145" y2="72.341" gradientUnits="userSpaceOnUse">
<stop stop-color="#EDF0F2"/>
<stop offset="1" stop-color="#D6D9DE"/>
</linearGradient>
<linearGradient id="paint17_linear_53_30" x1="-0.0174753" y1="72.7825" x2="51.1145" y2="72.341" gradientUnits="userSpaceOnUse">
<stop stop-color="#EDF0F2"/>
<stop offset="1" stop-color="#D6D9DE"/>
</linearGradient>
<linearGradient id="paint18_linear_53_30" x1="333.767" y1="921.935" x2="425.278" y2="920.459" gradientUnits="userSpaceOnUse">
<stop stop-color="#EDF0F2"/>
<stop offset="1" stop-color="#D6D9DE"/>
</linearGradient>
<linearGradient id="paint19_linear_53_30" x1="369.325" y1="1031.47" x2="285.748" y2="1048.28" gradientUnits="userSpaceOnUse">
<stop stop-color="#EDF0F2"/>
<stop offset="1" stop-color="#D6D9DE"/>
</linearGradient>
<linearGradient id="paint20_linear_53_30" x1="509.181" y1="921.935" x2="600.692" y2="920.459" gradientUnits="userSpaceOnUse">
<stop stop-color="#EDF0F2"/>
<stop offset="1" stop-color="#D6D9DE"/>
</linearGradient>
</defs>
</svg>
