<svg width="1366" height="284" viewBox="0 0 1366 284" fill="none" xmlns="http://www.w3.org/2000/svg">
<g clip-path="url(#clip0_405_1989)">
<path d="M-0.000427246 117.486C9.84921 117.486 19.2954 113.573 26.2602 106.609C33.2249 99.644 37.1377 90.1977 37.1377 80.3481C37.1377 70.4984 33.2249 61.0522 26.2602 54.0875C19.2954 47.1227 9.84921 43.21 -0.000427246 43.21L-0.000427246 117.486Z" fill="url(#paint0_linear_405_1989)"/>
</g>
<g clip-path="url(#clip1_405_1989)">
<path d="M74.2772 179.383C74.2772 186.728 72.0991 193.909 68.0183 200.016C63.9375 206.123 58.1374 210.883 51.3513 213.694C44.5652 216.505 37.0979 217.241 29.8938 215.808C22.6897 214.375 16.0724 210.838 10.8785 205.644C5.68464 200.45 2.14757 193.832 0.714592 186.628C-0.718391 179.424 0.0170679 171.957 2.82796 165.171C5.63886 158.385 10.3989 152.585 16.5063 148.504C22.6136 144.423 29.7939 142.245 37.1391 142.245H74.2772L74.2772 179.383Z" fill="url(#paint1_linear_405_1989)"/>
</g>
<g clip-path="url(#clip2_405_1989)">
<path d="M1109.25 132.232C1109.25 122.012 1105.19 112.21 1097.97 104.984C1090.74 97.7569 1080.94 93.697 1070.72 93.697C1060.5 93.697 1050.7 97.7569 1043.47 104.984C1036.24 112.21 1032.18 122.012 1032.18 132.232H1109.25Z" fill="url(#paint2_linear_405_1989)"/>
</g>
<g clip-path="url(#clip3_405_1989)">
<path d="M1205.27 77.5917C1215.49 77.5917 1225.29 73.5318 1232.51 66.3052C1239.74 59.0785 1243.8 49.2771 1243.8 39.0571C1243.8 28.8371 1239.74 19.0356 1232.51 11.809C1225.29 4.58235 1215.49 0.522461 1205.27 0.522461V77.5917Z" fill="url(#paint3_linear_405_1989)"/>
</g>
<g clip-path="url(#clip4_405_1989)">
<path d="M1282.33 244.579C1282.33 223.297 1265.08 206.045 1243.8 206.045C1222.52 206.045 1205.26 223.297 1205.26 244.579C1205.26 265.861 1222.52 283.114 1243.8 283.114C1265.08 283.114 1282.33 265.861 1282.33 244.579Z" fill="url(#paint4_linear_405_1989)"/>
</g>
<g clip-path="url(#clip5_405_1989)">
<path d="M1308.02 244.579C1308.02 236.958 1310.28 229.507 1314.51 223.17C1318.75 216.833 1324.77 211.894 1331.81 208.978C1338.85 206.061 1346.6 205.298 1354.07 206.785C1361.55 208.272 1368.41 211.942 1373.8 217.331C1379.19 222.72 1382.86 229.586 1384.35 237.061C1385.83 244.536 1385.07 252.284 1382.15 259.326C1379.24 266.367 1374.3 272.385 1367.96 276.619C1361.62 280.854 1354.17 283.114 1346.55 283.114H1308.02V244.579Z" fill="url(#paint5_linear_405_1989)"/>
</g>
<path d="M297.648 128.585C297.648 123.688 296.121 118.901 293.26 114.83C290.398 110.758 286.332 107.585 281.574 105.711C276.815 103.837 271.58 103.347 266.529 104.302C261.478 105.257 256.838 107.615 253.196 111.078C249.554 114.54 247.074 118.952 246.07 123.755C245.065 128.557 245.581 133.536 247.551 138.06C249.522 142.584 252.86 146.451 257.142 149.171C261.424 151.892 266.459 153.344 271.609 153.344H297.648V128.585Z" fill="url(#paint6_linear_405_1989)" fill-opacity="0.46"/>
<g clip-path="url(#clip6_405_1989)">
<path d="M1044.99 219.082C1044.99 212.481 1039.64 207.13 1033.04 207.13C1026.44 207.13 1021.08 212.481 1021.08 219.082C1021.08 225.684 1026.44 231.035 1033.04 231.035C1039.64 231.035 1044.99 225.684 1044.99 219.082Z" fill="url(#paint7_linear_405_1989)"/>
</g>
<path d="M233.074 208.411C233.074 190.729 218.74 176.395 201.059 176.395C183.377 176.395 169.043 190.729 169.043 208.411C169.043 226.092 183.377 240.426 201.059 240.426C218.74 240.426 233.074 226.092 233.074 208.411Z" fill="url(#paint8_linear_405_1989)" fill-opacity="0.12"/>
<g clip-path="url(#clip7_405_1989)">
<path d="M378.637 243.841C378.637 237.24 373.286 231.889 366.685 231.889C360.084 231.889 354.732 237.24 354.732 243.841C354.732 250.443 360.084 255.794 366.685 255.794C373.286 255.794 378.637 250.443 378.637 243.841Z" fill="url(#paint9_linear_405_1989)"/>
</g>
<defs>
<linearGradient id="paint0_linear_405_1989" x1="27.2102" y1="59.0903" x2="-0.000427246" y2="80.3481" gradientUnits="userSpaceOnUse">
<stop stop-color="#FFD355"/>
<stop offset="1" stop-color="#F7B801"/>
</linearGradient>
<linearGradient id="paint1_linear_405_1989" x1="0.000976562" y1="179.383" x2="74.2772" y2="179.383" gradientUnits="userSpaceOnUse">
<stop stop-color="#6638EB"/>
<stop offset="1" stop-color="#9D7BFF"/>
</linearGradient>
<linearGradient id="paint2_linear_405_1989" x1="1048.66" y1="103.998" x2="1070.72" y2="132.232" gradientUnits="userSpaceOnUse">
<stop stop-color="#FFD355"/>
<stop offset="1" stop-color="#F7B801"/>
</linearGradient>
<linearGradient id="paint3_linear_405_1989" x1="1233.5" y1="17" x2="1205.27" y2="39.0571" gradientUnits="userSpaceOnUse">
<stop stop-color="#FFD355"/>
<stop offset="1" stop-color="#F7B801"/>
</linearGradient>
<linearGradient id="paint4_linear_405_1989" x1="1211" y1="216.5" x2="1282.33" y2="244.579" gradientUnits="userSpaceOnUse">
<stop stop-color="#B7B8FF"/>
<stop offset="1" stop-color="#7678ED"/>
</linearGradient>
<linearGradient id="paint5_linear_405_1989" x1="1385.09" y1="244.579" x2="1308.02" y2="244.579" gradientUnits="userSpaceOnUse">
<stop stop-color="#6638EB"/>
<stop offset="1" stop-color="#9D7BFF"/>
</linearGradient>
<linearGradient id="paint6_linear_405_1989" x1="245.569" y1="128.585" x2="298" y2="119" gradientUnits="userSpaceOnUse">
<stop stop-color="#6638EB"/>
<stop offset="1" stop-color="#9976FF"/>
</linearGradient>
<linearGradient id="paint7_linear_405_1989" x1="1036" y1="207" x2="1035.59" y2="224.299" gradientUnits="userSpaceOnUse">
<stop stop-color="#FFD355"/>
<stop offset="1" stop-color="#F7B801"/>
</linearGradient>
<linearGradient id="paint8_linear_405_1989" x1="190.5" y1="237.5" x2="201" y2="176" gradientUnits="userSpaceOnUse">
<stop stop-color="#5052E1"/>
<stop offset="0.972418" stop-color="#D0D1FF"/>
</linearGradient>
<linearGradient id="paint9_linear_405_1989" x1="354.732" y1="243.841" x2="378.637" y2="243.841" gradientUnits="userSpaceOnUse">
<stop stop-color="#6638EB"/>
<stop offset="1" stop-color="#9D7BFF"/>
</linearGradient>
<clipPath id="clip0_405_1989">
<rect width="74.2762" height="74.2762" fill="white" transform="translate(74.2764 43.21) rotate(90)"/>
</clipPath>
<clipPath id="clip1_405_1989">
<rect width="74.2762" height="74.2762" fill="white" transform="translate(0.000976562 216.521) rotate(-90)"/>
</clipPath>
<clipPath id="clip2_405_1989">
<rect width="77.0693" height="77.0693" fill="white" transform="translate(1032.18 55.1626)"/>
</clipPath>
<clipPath id="clip3_405_1989">
<rect width="77.0693" height="77.0693" fill="white" transform="translate(1282.33 0.522461) rotate(90)"/>
</clipPath>
<clipPath id="clip4_405_1989">
<rect width="77.0693" height="77.0693" fill="white" transform="translate(1205.26 283.114) rotate(-90)"/>
</clipPath>
<clipPath id="clip5_405_1989">
<rect width="77.0693" height="77.0693" fill="white" transform="translate(1385.09 206.044) rotate(90)"/>
</clipPath>
<clipPath id="clip6_405_1989">
<rect width="23.905" height="23.905" fill="white" transform="translate(1021.08 231.035) rotate(-90)"/>
</clipPath>
<clipPath id="clip7_405_1989">
<rect width="23.905" height="23.905" fill="white" transform="translate(354.732 255.794) rotate(-90)"/>
</clipPath>
</defs>
</svg>
