<svg width="1600" height="388" viewBox="0 0 1600 388" fill="none" xmlns="http://www.w3.org/2000/svg">
<g clip-path="url(#clip0_313_1944)">
<path d="M-0.000973821 177C11.5359 177 22.6003 172.417 30.7582 164.259C38.916 156.101 43.499 145.037 43.499 133.5C43.499 121.963 38.916 110.899 30.7582 102.741C22.6003 94.583 11.5359 90 -0.000973821 90L-0.000973821 177Z" fill="#F7B801"/>
</g>
<g clip-path="url(#clip1_313_1944)">
<path d="M87.001 249.5C87.001 258.104 84.4498 266.514 79.6699 273.667C74.8901 280.821 68.0963 286.396 60.1477 289.689C52.1991 292.981 43.4527 293.843 35.0146 292.164C26.5764 290.486 18.8254 286.343 12.7419 280.259C6.65827 274.176 2.51529 266.425 0.836836 257.986C-0.841621 249.548 0.0198244 240.802 3.31224 232.853C6.60465 224.905 12.1802 218.111 19.3337 213.331C26.4872 208.551 34.8975 206 43.501 206H87.001V249.5Z" fill="#6638EB"/>
</g>
<g clip-path="url(#clip2_313_1944)">
<path d="M1299.27 194.271C1299.27 182.301 1294.52 170.82 1286.05 162.356C1277.59 153.891 1266.11 149.136 1254.14 149.136C1242.16 149.136 1230.68 153.891 1222.22 162.356C1213.76 170.82 1209 182.301 1209 194.271H1299.27Z" fill="#F7B801"/>
</g>
<g clip-path="url(#clip3_313_1944)">
<path d="M1411.73 130.271C1423.7 130.271 1435.18 125.516 1443.65 117.052C1452.11 108.587 1456.87 97.1065 1456.87 85.1357C1456.87 73.165 1452.11 61.6845 1443.65 53.22C1435.18 44.7554 1423.7 40 1411.73 40V130.271Z" fill="#F7B801"/>
</g>
<g clip-path="url(#clip4_313_1944)">
<path d="M1502 325.864C1502 300.936 1481.79 280.729 1456.87 280.729C1431.94 280.729 1411.73 300.936 1411.73 325.864C1411.73 350.792 1431.94 371 1456.87 371C1481.79 371 1502 350.792 1502 325.864Z" fill="#7678ED"/>
</g>
<g clip-path="url(#clip5_313_1944)">
<path d="M1532.09 325.864C1532.09 316.937 1534.73 308.211 1539.69 300.788C1544.65 293.366 1551.7 287.581 1559.95 284.164C1568.2 280.748 1577.27 279.854 1586.03 281.596C1594.78 283.337 1602.83 287.636 1609.14 293.948C1615.45 300.261 1619.75 308.303 1621.49 317.059C1623.23 325.814 1622.34 334.889 1618.92 343.137C1615.51 351.384 1609.72 358.434 1602.3 363.393C1594.88 368.353 1586.15 371 1577.22 371H1532.09V325.864Z" fill="#6638EB"/>
</g>
<path d="M348.636 190C348.636 184.264 346.847 178.658 343.496 173.888C340.144 169.119 335.381 165.402 329.808 163.208C324.234 161.013 318.102 160.438 312.186 161.557C306.269 162.676 300.835 165.438 296.569 169.494C292.303 173.55 289.399 178.717 288.222 184.342C287.045 189.968 287.649 195.799 289.957 201.098C292.266 206.397 296.175 210.926 301.191 214.113C306.207 217.299 312.103 219 318.136 219H348.636V190Z" fill="#6638EB" fill-opacity="0.46"/>
<g clip-path="url(#clip6_313_1944)">
<path d="M1224 296C1224 288.268 1217.73 282 1210 282C1202.27 282 1196 288.268 1196 296C1196 303.732 1202.27 310 1210 310C1217.73 310 1224 303.732 1224 296Z" fill="#F7B801"/>
</g>
<path d="M273 283.5C273 262.789 256.211 246 235.5 246C214.789 246 198 262.789 198 283.5C198 304.211 214.789 321 235.5 321C256.211 321 273 304.211 273 283.5Z" fill="#7678ED" fill-opacity="0.12"/>
<g clip-path="url(#clip7_313_1944)">
<path d="M443.5 325C443.5 317.268 437.232 311 429.5 311C421.768 311 415.5 317.268 415.5 325C415.5 332.732 421.768 339 429.5 339C437.232 339 443.5 332.732 443.5 325Z" fill="#7678ED"/>
</g>
<defs>
<clipPath id="clip0_313_1944">
<rect width="87" height="87" fill="white" transform="translate(87 90) rotate(90)"/>
</clipPath>
<clipPath id="clip1_313_1944">
<rect width="87" height="87" fill="white" transform="translate(0.000976562 293) rotate(-90)"/>
</clipPath>
<clipPath id="clip2_313_1944">
<rect width="90.2715" height="90.2715" fill="white" transform="translate(1209 104)"/>
</clipPath>
<clipPath id="clip3_313_1944">
<rect width="90.2715" height="90.2715" fill="white" transform="translate(1502 40) rotate(90)"/>
</clipPath>
<clipPath id="clip4_313_1944">
<rect width="90.2715" height="90.2715" fill="white" transform="translate(1411.73 371) rotate(-90)"/>
</clipPath>
<clipPath id="clip5_313_1944">
<rect width="90.2715" height="90.2715" fill="white" transform="translate(1622.36 280.729) rotate(90)"/>
</clipPath>
<clipPath id="clip6_313_1944">
<rect width="28" height="28" fill="white" transform="translate(1196 310) rotate(-90)"/>
</clipPath>
<clipPath id="clip7_313_1944">
<rect width="28" height="28" fill="white" transform="translate(415.5 339) rotate(-90)"/>
</clipPath>
</defs>
</svg>
