<svg width="174" height="221" viewBox="0 0 174 221" fill="none" xmlns="http://www.w3.org/2000/svg">
<path d="M2.92346 119.779C2.92346 111.204 4.67754 103.749 8.1857 97.4147C11.7913 90.9831 16.7612 86.0619 23.0954 82.6512C29.527 79.2405 36.8356 77.5351 45.0213 77.5351C55.7407 77.5351 64.7547 80.556 72.0634 86.5979C79.4695 92.6397 84.147 101.02 86.096 111.74H51.7453C50.4785 107.452 47.9935 105.308 44.2905 105.308C41.6593 105.308 39.5642 106.526 38.005 108.962C36.5433 111.399 35.8124 115.004 35.8124 119.779C35.8124 124.554 36.5433 128.16 38.005 130.596C39.5642 133.032 41.6593 134.25 44.2905 134.25C47.9935 134.25 50.4785 132.106 51.7453 127.819H86.096C84.147 138.538 79.4695 146.919 72.0634 152.96C64.7547 159.002 55.7407 162.023 45.0213 162.023C36.8356 162.023 29.527 160.318 23.0954 156.907C16.7612 153.496 11.7913 148.624 8.1857 142.29C4.67754 135.858 2.92346 128.355 2.92346 119.779ZM133.072 162.023C125.276 162.023 118.358 160.756 112.316 158.223C106.371 155.689 101.645 152.181 98.137 147.698C94.6288 143.216 92.6311 138.148 92.1439 132.496H123.279C123.669 134.932 124.692 136.735 126.348 137.905C128.102 139.074 130.295 139.659 132.926 139.659C134.583 139.659 135.898 139.318 136.873 138.636C137.847 137.856 138.335 136.93 138.335 135.858C138.335 134.007 137.311 132.691 135.265 131.912C133.219 131.132 129.759 130.255 124.887 129.28C118.942 128.111 114.021 126.844 110.123 125.48C106.323 124.116 102.961 121.777 100.037 118.464C97.2112 115.15 95.7982 110.57 95.7982 104.723C95.7982 99.656 97.1138 95.0759 99.7449 90.9831C102.473 86.7928 106.469 83.5282 111.731 81.1895C116.993 78.7532 123.376 77.5351 130.88 77.5351C141.989 77.5351 150.662 80.2637 156.899 85.7208C163.233 91.178 167.033 98.2917 168.3 107.062H139.504C139.017 104.821 137.994 103.115 136.434 101.946C134.875 100.679 132.78 100.046 130.149 100.046C128.492 100.046 127.225 100.387 126.348 101.069C125.471 101.654 125.033 102.579 125.033 103.846C125.033 105.503 126.056 106.77 128.102 107.647C130.149 108.426 133.413 109.255 137.896 110.132C143.84 111.301 148.859 112.617 152.952 114.078C157.045 115.54 160.602 118.074 163.623 121.679C166.643 125.188 168.154 130.06 168.154 136.297C168.154 141.169 166.741 145.554 163.915 149.452C161.089 153.35 156.996 156.42 151.636 158.661C146.374 160.903 140.186 162.023 133.072 162.023Z" fill="#07122A"/>
<mask id="mask0_68_547" style="mask-type:alpha" maskUnits="userSpaceOnUse" x="2" y="77" width="167" height="86">
<path d="M2.92346 119.779C2.92346 111.204 4.67754 103.749 8.1857 97.4147C11.7913 90.9831 16.7612 86.0619 23.0954 82.6512C29.527 79.2405 36.8356 77.5351 45.0213 77.5351C55.7407 77.5351 64.7547 80.556 72.0634 86.5979C79.4695 92.6397 84.147 101.02 86.096 111.74H51.7453C50.4785 107.452 47.9935 105.308 44.2905 105.308C41.6593 105.308 39.5642 106.526 38.005 108.962C36.5433 111.399 35.8124 115.004 35.8124 119.779C35.8124 124.554 36.5433 128.16 38.005 130.596C39.5642 133.032 41.6593 134.25 44.2905 134.25C47.9935 134.25 50.4785 132.106 51.7453 127.819H86.096C84.147 138.538 79.4695 146.919 72.0634 152.96C64.7547 159.002 55.7407 162.023 45.0213 162.023C36.8356 162.023 29.527 160.318 23.0954 156.907C16.7612 153.496 11.7913 148.624 8.1857 142.29C4.67754 135.858 2.92346 128.355 2.92346 119.779ZM133.072 162.023C125.276 162.023 118.358 160.756 112.316 158.223C106.371 155.689 101.645 152.181 98.137 147.698C94.6288 143.216 92.6311 138.148 92.1439 132.496H123.279C123.669 134.932 124.692 136.735 126.348 137.905C128.102 139.074 130.295 139.659 132.926 139.659C134.583 139.659 135.898 139.318 136.873 138.636C137.847 137.856 138.335 136.93 138.335 135.858C138.335 134.007 137.311 132.691 135.265 131.912C133.219 131.132 129.759 130.255 124.887 129.28C118.942 128.111 114.021 126.844 110.123 125.48C106.323 124.116 102.961 121.777 100.037 118.464C97.2112 115.15 95.7982 110.57 95.7982 104.723C95.7982 99.656 97.1138 95.0759 99.7449 90.9831C102.473 86.7928 106.469 83.5282 111.731 81.1895C116.993 78.7532 123.376 77.5351 130.88 77.5351C141.989 77.5351 150.662 80.2637 156.899 85.7208C163.233 91.178 167.033 98.2917 168.3 107.062H139.504C139.017 104.821 137.994 103.115 136.434 101.946C134.875 100.679 132.78 100.046 130.149 100.046C128.492 100.046 127.225 100.387 126.348 101.069C125.471 101.654 125.033 102.579 125.033 103.846C125.033 105.503 126.056 106.77 128.102 107.647C130.149 108.426 133.413 109.255 137.896 110.132C143.84 111.301 148.859 112.617 152.952 114.078C157.045 115.54 160.602 118.074 163.623 121.679C166.643 125.188 168.154 130.06 168.154 136.297C168.154 141.169 166.741 145.554 163.915 149.452C161.089 153.35 156.996 156.42 151.636 158.661C146.374 160.903 140.186 162.023 133.072 162.023Z" fill="black"/>
</mask>
<g mask="url(#mask0_68_547)">
<path d="M93.6244 126.543C75.4776 123.319 59.3547 113.019 48.8026 97.9077C38.2504 82.7965 34.1333 64.1124 37.357 45.9657C40.5807 27.8189 50.8811 11.696 65.9923 1.14385C81.1034 -9.40833 99.7875 -13.5254 117.934 -10.3017L108.923 40.4238C104.23 39.59 99.3971 40.6548 95.4887 43.3841C91.5804 46.1133 88.9163 50.2833 88.0825 54.9768C87.2487 59.6703 88.3135 64.5028 91.0428 68.4112C93.772 72.3196 97.9421 74.9837 102.636 75.8175L93.6244 126.543Z" fill="#6638EB"/>
<path d="M59.0582 109.565C47.1162 98.7191 39.3194 84.0567 37.0048 68.0918L87.9914 60.6996C88.59 64.8288 90.6066 68.6211 93.6953 71.4262L59.0582 109.565Z" fill="#38C0EB"/>
<path d="M92.4653 126.339C110.622 129.507 129.293 125.333 144.372 114.734C159.451 104.136 169.702 87.9814 172.87 69.8248C176.038 51.6683 171.864 32.9969 161.265 17.9181C150.667 2.83936 134.512 -7.41161 116.356 -10.5797L107.5 40.1732C112.196 40.9926 116.374 43.6439 119.115 47.5439C121.857 51.4439 122.936 56.2731 122.117 60.9691C121.298 65.6652 118.646 69.8433 114.746 72.5845C110.846 75.3257 106.017 76.4054 101.321 75.586L92.4653 126.339Z" fill="#6638EB"/>
<path d="M130.752 122.187C145.68 116.073 158.016 104.955 165.644 90.7407L120.248 66.3788C118.275 70.0552 115.084 72.9308 111.223 74.5123L130.752 122.187Z" fill="#38C0EB"/>
</g>
</svg>
