<svg width="216" height="43" viewBox="0 0 216 43" fill="none" xmlns="http://www.w3.org/2000/svg">
<path d="M0.574086 23.9054C0.574086 22.2214 0.918538 20.7575 1.60744 19.5136C2.31548 18.2506 3.29143 17.2843 4.53528 16.6145C5.79827 15.9447 7.23349 15.6098 8.84093 15.6098C10.9459 15.6098 12.716 16.2031 14.1512 17.3895C15.6056 18.5759 16.5241 20.2217 16.9068 22.3266H10.1613C9.91256 21.4847 9.42458 21.0637 8.69741 21.0637C8.18073 21.0637 7.7693 21.3029 7.46312 21.7813C7.17608 22.2597 7.03256 22.9677 7.03256 23.9054C7.03256 24.8431 7.17608 25.5511 7.46312 26.0295C7.7693 26.5079 8.18073 26.7471 8.69741 26.7471C9.42458 26.7471 9.91256 26.3261 10.1613 25.4841H16.9068C16.5241 27.5891 15.6056 29.2348 14.1512 30.4213C12.716 31.6077 10.9459 32.2009 8.84093 32.2009C7.23349 32.2009 5.79827 31.866 4.53528 31.1963C3.29143 30.5265 2.31548 29.5697 1.60744 28.3258C0.918538 27.0629 0.574086 25.5894 0.574086 23.9054ZM25.2993 18.796C25.9499 17.8583 26.7441 17.112 27.6817 16.5571C28.6194 15.983 29.5953 15.6959 30.6096 15.6959V22.4989H28.8012C27.5956 22.4989 26.7058 22.7094 26.1317 23.1304C25.5767 23.5514 25.2993 24.2977 25.2993 25.3693V32H18.9269V15.8108H25.2993V18.796ZM47.9986 23.7619C47.9986 24.202 47.9698 24.623 47.9124 25.0249H37.665C37.7607 26.4218 38.3443 27.1203 39.416 27.1203C40.1049 27.1203 40.6024 26.8045 40.9086 26.173H47.6541C47.4245 27.3212 46.9365 28.3546 46.1902 29.2731C45.463 30.1725 44.5349 30.8901 43.4059 31.4259C42.296 31.9426 41.0712 32.2009 39.7317 32.2009C38.1243 32.2009 36.689 31.866 35.4261 31.1963C34.1822 30.5265 33.2063 29.5697 32.4982 28.3258C31.8093 27.0629 31.4649 25.5894 31.4649 23.9054C31.4649 22.2214 31.8093 20.7575 32.4982 19.5136C33.2063 18.2506 34.1822 17.2843 35.4261 16.6145C36.689 15.9447 38.1243 15.6098 39.7317 15.6098C41.3391 15.6098 42.7648 15.9447 44.0087 16.6145C45.2716 17.2651 46.2476 18.2028 46.9365 19.4275C47.6445 20.6522 47.9986 22.097 47.9986 23.7619ZM41.5401 22.2405C41.5401 21.7047 41.3679 21.3029 41.0234 21.035C40.679 20.7479 40.2484 20.6044 39.7317 20.6044C38.6027 20.6044 37.9425 21.1498 37.7511 22.2405H41.5401ZM49.1528 23.9054C49.1528 22.2023 49.4398 20.7288 50.0139 19.4849C50.6071 18.2219 51.4109 17.2651 52.4251 16.6145C53.4393 15.9447 54.5779 15.6098 55.8409 15.6098C56.8934 15.6098 57.8023 15.8299 58.5678 16.27C59.3332 16.691 59.9169 17.2747 60.3188 18.021V15.8108H66.6624V32H60.3188V29.7898C59.9169 30.5361 59.3332 31.1293 58.5678 31.5694C57.8023 31.9904 56.8934 32.2009 55.8409 32.2009C54.5779 32.2009 53.4393 31.8756 52.4251 31.225C51.4109 30.5552 50.6071 29.5984 50.0139 28.3546C49.4398 27.0916 49.1528 25.6085 49.1528 23.9054ZM60.3188 23.9054C60.3188 23.0443 60.0987 22.3745 59.6586 21.8961C59.2184 21.4177 58.6539 21.1785 57.965 21.1785C57.2761 21.1785 56.7116 21.4177 56.2715 21.8961C55.8313 22.3745 55.6113 23.0443 55.6113 23.9054C55.6113 24.7665 55.8313 25.4363 56.2715 25.9147C56.7116 26.3931 57.2761 26.6323 57.965 26.6323C58.6539 26.6323 59.2184 26.3931 59.6586 25.9147C60.0987 25.4363 60.3188 24.7665 60.3188 23.9054ZM79.5991 26.5749V32H77.1879C72.7483 32 70.5285 29.7898 70.5285 25.3693V21.1211H68.5192V15.8108H70.5285V11.907H76.9009V15.8108H79.5417V21.1211H76.9009V25.4841C76.9009 25.8668 76.987 26.1443 77.1592 26.3165C77.3506 26.4888 77.6568 26.5749 78.0778 26.5749H79.5991ZM85.2408 14.5191C84.1309 14.5191 83.2411 14.2225 82.5713 13.6292C81.9016 13.036 81.5667 12.2897 81.5667 11.3903C81.5667 10.4718 81.9016 9.71588 82.5713 9.12266C83.2411 8.5103 84.1309 8.20412 85.2408 8.20412C86.3316 8.20412 87.2119 8.5103 87.8816 9.12266C88.5514 9.71588 88.8863 10.4718 88.8863 11.3903C88.8863 12.2897 88.5514 13.036 87.8816 13.6292C87.2119 14.2225 86.3316 14.5191 85.2408 14.5191ZM88.3983 15.8108V32H82.026V15.8108H88.3983ZM99.4858 25.9434L102.069 15.8108H108.843L103.447 32H95.4959L90.0995 15.8108H96.8737L99.4858 25.9434ZM126.207 23.7619C126.207 24.202 126.178 24.623 126.12 25.0249H115.873C115.969 26.4218 116.552 27.1203 117.624 27.1203C118.313 27.1203 118.81 26.8045 119.117 26.173H125.862C125.633 27.3212 125.145 28.3546 124.398 29.2731C123.671 30.1725 122.743 30.8901 121.614 31.4259C120.504 31.9426 119.279 32.2009 117.94 32.2009C116.332 32.2009 114.897 31.866 113.634 31.1963C112.39 30.5265 111.414 29.5697 110.706 28.3258C110.017 27.0629 109.673 25.5894 109.673 23.9054C109.673 22.2214 110.017 20.7575 110.706 19.5136C111.414 18.2506 112.39 17.2843 113.634 16.6145C114.897 15.9447 116.332 15.6098 117.94 15.6098C119.547 15.6098 120.973 15.9447 122.217 16.6145C123.48 17.2651 124.456 18.2028 125.145 19.4275C125.853 20.6522 126.207 22.097 126.207 23.7619ZM119.748 22.2405C119.748 21.7047 119.576 21.3029 119.231 21.035C118.887 20.7479 118.456 20.6044 117.94 20.6044C116.811 20.6044 116.151 21.1498 115.959 22.2405H119.748ZM140.304 32.2009C138.773 32.2009 137.415 31.9522 136.228 31.4546C135.061 30.9571 134.133 30.2682 133.444 29.3879C132.755 28.5076 132.363 27.5126 132.267 26.4027H138.381C138.458 26.8811 138.659 27.2351 138.984 27.4647C139.328 27.6944 139.759 27.8092 140.276 27.8092C140.601 27.8092 140.859 27.7422 141.051 27.6082C141.242 27.4551 141.338 27.2734 141.338 27.0629C141.338 26.6993 141.137 26.4409 140.735 26.2878C140.333 26.1348 139.654 25.9625 138.697 25.7712C137.529 25.5415 136.563 25.2928 135.798 25.0249C135.051 24.7569 134.391 24.2977 133.817 23.647C133.262 22.9964 132.985 22.097 132.985 20.9488C132.985 19.9538 133.243 19.0544 133.76 18.2506C134.295 17.4278 135.08 16.7867 136.113 16.3274C137.147 15.849 138.4 15.6098 139.874 15.6098C142.055 15.6098 143.758 16.1456 144.983 17.2173C146.227 18.2889 146.973 19.6858 147.222 21.4081H141.567C141.472 20.968 141.271 20.6331 140.964 20.4035C140.658 20.1547 140.247 20.0303 139.73 20.0303C139.405 20.0303 139.156 20.0973 138.984 20.2312C138.812 20.346 138.725 20.5278 138.725 20.7766C138.725 21.1019 138.926 21.3507 139.328 21.5229C139.73 21.676 140.371 21.8387 141.251 22.0109C142.419 22.2405 143.404 22.4989 144.208 22.7859C145.012 23.073 145.71 23.5705 146.303 24.2785C146.897 24.9674 147.193 25.9243 147.193 27.149C147.193 28.1058 146.916 28.9669 146.361 29.7324C145.806 30.4978 145.002 31.1006 143.95 31.5407C142.916 31.9809 141.701 32.2009 140.304 32.2009ZM159.797 26.5749V32H157.386C152.947 32 150.727 29.7898 150.727 25.3693V21.1211H148.718V15.8108H150.727V11.907H157.099V15.8108H159.74V21.1211H157.099V25.4841C157.099 25.8668 157.185 26.1443 157.358 26.3165C157.549 26.4888 157.855 26.5749 158.276 26.5749H159.797ZM169.917 32.2009C168.29 32.2009 166.827 31.866 165.525 31.1963C164.224 30.5265 163.2 29.5697 162.454 28.3258C161.727 27.0629 161.363 25.5894 161.363 23.9054C161.363 22.2214 161.727 20.7575 162.454 19.5136C163.2 18.2506 164.224 17.2843 165.525 16.6145C166.827 15.9447 168.29 15.6098 169.917 15.6098C171.544 15.6098 173.008 15.9447 174.309 16.6145C175.61 17.2843 176.624 18.2506 177.351 19.5136C178.098 20.7575 178.471 22.2214 178.471 23.9054C178.471 25.5894 178.098 27.0629 177.351 28.3258C176.624 29.5697 175.61 30.5265 174.309 31.1963C173.008 31.866 171.544 32.2009 169.917 32.2009ZM169.917 26.6897C170.51 26.6897 171.008 26.4601 171.41 26.0008C171.811 25.5224 172.012 24.8239 172.012 23.9054C172.012 22.9868 171.811 22.2979 171.41 21.8387C171.008 21.3603 170.51 21.1211 169.917 21.1211C169.324 21.1211 168.826 21.3603 168.424 21.8387C168.023 22.2979 167.822 22.9868 167.822 23.9054C167.822 24.8239 168.013 25.5224 168.396 26.0008C168.798 26.4601 169.305 26.6897 169.917 26.6897ZM179.612 23.9054C179.612 22.2214 179.956 20.7575 180.645 19.5136C181.353 18.2506 182.329 17.2843 183.573 16.6145C184.836 15.9447 186.271 15.6098 187.878 15.6098C189.983 15.6098 191.754 16.2031 193.189 17.3895C194.643 18.5759 195.562 20.2217 195.944 22.3266H189.199C188.95 21.4847 188.462 21.0637 187.735 21.0637C187.218 21.0637 186.807 21.3029 186.501 21.7813C186.214 22.2597 186.07 22.9677 186.07 23.9054C186.07 24.8431 186.214 25.5511 186.501 26.0295C186.807 26.5079 187.218 26.7471 187.735 26.7471C188.462 26.7471 188.95 26.3261 189.199 25.4841H195.944C195.562 27.5891 194.643 29.2348 193.189 30.4213C191.754 31.6077 189.983 32.2009 187.878 32.2009C186.271 32.2009 184.836 31.866 183.573 31.1963C182.329 30.5265 181.353 29.5697 180.645 28.3258C179.956 27.0629 179.612 25.5894 179.612 23.9054ZM208.327 32L204.337 25.5415V32H197.964V10.7588H204.337V21.8674L208.384 15.8108H215.79L209.733 23.9628L215.933 32H208.327Z" fill="#07122A"/>
<mask id="mask0_68_9" style="mask-type:alpha" maskUnits="userSpaceOnUse" x="0" y="8" width="216" height="25">
<path d="M0.574086 23.9054C0.574086 22.2214 0.918538 20.7575 1.60744 19.5136C2.31548 18.2506 3.29143 17.2843 4.53528 16.6145C5.79827 15.9447 7.23349 15.6098 8.84093 15.6098C10.9459 15.6098 12.716 16.2031 14.1512 17.3895C15.6056 18.5759 16.5241 20.2217 16.9068 22.3266H10.1613C9.91256 21.4847 9.42458 21.0637 8.69741 21.0637C8.18073 21.0637 7.7693 21.3029 7.46312 21.7813C7.17608 22.2597 7.03256 22.9677 7.03256 23.9054C7.03256 24.8431 7.17608 25.5511 7.46312 26.0295C7.7693 26.5079 8.18073 26.7471 8.69741 26.7471C9.42458 26.7471 9.91256 26.3261 10.1613 25.4841H16.9068C16.5241 27.5891 15.6056 29.2348 14.1512 30.4213C12.716 31.6077 10.9459 32.2009 8.84093 32.2009C7.23349 32.2009 5.79827 31.866 4.53528 31.1963C3.29143 30.5265 2.31548 29.5697 1.60744 28.3258C0.918538 27.0629 0.574086 25.5894 0.574086 23.9054ZM25.2993 18.796C25.9499 17.8583 26.7441 17.112 27.6817 16.5571C28.6194 15.983 29.5953 15.6959 30.6096 15.6959V22.4989H28.8012C27.5956 22.4989 26.7058 22.7094 26.1317 23.1304C25.5767 23.5514 25.2993 24.2977 25.2993 25.3693V32H18.9269V15.8108H25.2993V18.796ZM47.9986 23.7619C47.9986 24.202 47.9698 24.623 47.9124 25.0249H37.665C37.7607 26.4218 38.3443 27.1203 39.416 27.1203C40.1049 27.1203 40.6024 26.8045 40.9086 26.173H47.6541C47.4245 27.3212 46.9365 28.3546 46.1902 29.2731C45.463 30.1725 44.5349 30.8901 43.4059 31.4259C42.296 31.9426 41.0712 32.2009 39.7317 32.2009C38.1243 32.2009 36.689 31.866 35.4261 31.1963C34.1822 30.5265 33.2063 29.5697 32.4982 28.3258C31.8093 27.0629 31.4649 25.5894 31.4649 23.9054C31.4649 22.2214 31.8093 20.7575 32.4982 19.5136C33.2063 18.2506 34.1822 17.2843 35.4261 16.6145C36.689 15.9447 38.1243 15.6098 39.7317 15.6098C41.3391 15.6098 42.7648 15.9447 44.0087 16.6145C45.2716 17.2651 46.2476 18.2028 46.9365 19.4275C47.6445 20.6522 47.9986 22.097 47.9986 23.7619ZM41.5401 22.2405C41.5401 21.7047 41.3679 21.3029 41.0234 21.035C40.679 20.7479 40.2484 20.6044 39.7317 20.6044C38.6027 20.6044 37.9425 21.1498 37.7511 22.2405H41.5401ZM49.1528 23.9054C49.1528 22.2023 49.4398 20.7288 50.0139 19.4849C50.6071 18.2219 51.4109 17.2651 52.4251 16.6145C53.4393 15.9447 54.5779 15.6098 55.8409 15.6098C56.8934 15.6098 57.8023 15.8299 58.5678 16.27C59.3332 16.691 59.9169 17.2747 60.3188 18.021V15.8108H66.6624V32H60.3188V29.7898C59.9169 30.5361 59.3332 31.1293 58.5678 31.5694C57.8023 31.9904 56.8934 32.2009 55.8409 32.2009C54.5779 32.2009 53.4393 31.8756 52.4251 31.225C51.4109 30.5552 50.6071 29.5984 50.0139 28.3546C49.4398 27.0916 49.1528 25.6085 49.1528 23.9054ZM60.3188 23.9054C60.3188 23.0443 60.0987 22.3745 59.6586 21.8961C59.2184 21.4177 58.6539 21.1785 57.965 21.1785C57.2761 21.1785 56.7116 21.4177 56.2715 21.8961C55.8313 22.3745 55.6113 23.0443 55.6113 23.9054C55.6113 24.7665 55.8313 25.4363 56.2715 25.9147C56.7116 26.3931 57.2761 26.6323 57.965 26.6323C58.6539 26.6323 59.2184 26.3931 59.6586 25.9147C60.0987 25.4363 60.3188 24.7665 60.3188 23.9054ZM79.5991 26.5749V32H77.1879C72.7483 32 70.5285 29.7898 70.5285 25.3693V21.1211H68.5192V15.8108H70.5285V11.907H76.9009V15.8108H79.5417V21.1211H76.9009V25.4841C76.9009 25.8668 76.987 26.1443 77.1592 26.3165C77.3506 26.4888 77.6568 26.5749 78.0778 26.5749H79.5991ZM85.2408 14.5191C84.1309 14.5191 83.2411 14.2225 82.5713 13.6292C81.9016 13.036 81.5667 12.2897 81.5667 11.3903C81.5667 10.4718 81.9016 9.71588 82.5713 9.12266C83.2411 8.5103 84.1309 8.20412 85.2408 8.20412C86.3316 8.20412 87.2119 8.5103 87.8816 9.12266C88.5514 9.71588 88.8863 10.4718 88.8863 11.3903C88.8863 12.2897 88.5514 13.036 87.8816 13.6292C87.2119 14.2225 86.3316 14.5191 85.2408 14.5191ZM88.3983 15.8108V32H82.026V15.8108H88.3983ZM99.4858 25.9434L102.069 15.8108H108.843L103.447 32H95.4959L90.0995 15.8108H96.8737L99.4858 25.9434ZM126.207 23.7619C126.207 24.202 126.178 24.623 126.12 25.0249H115.873C115.969 26.4218 116.552 27.1203 117.624 27.1203C118.313 27.1203 118.81 26.8045 119.117 26.173H125.862C125.633 27.3212 125.145 28.3546 124.398 29.2731C123.671 30.1725 122.743 30.8901 121.614 31.4259C120.504 31.9426 119.279 32.2009 117.94 32.2009C116.332 32.2009 114.897 31.866 113.634 31.1963C112.39 30.5265 111.414 29.5697 110.706 28.3258C110.017 27.0629 109.673 25.5894 109.673 23.9054C109.673 22.2214 110.017 20.7575 110.706 19.5136C111.414 18.2506 112.39 17.2843 113.634 16.6145C114.897 15.9447 116.332 15.6098 117.94 15.6098C119.547 15.6098 120.973 15.9447 122.217 16.6145C123.48 17.2651 124.456 18.2028 125.145 19.4275C125.853 20.6522 126.207 22.097 126.207 23.7619ZM119.748 22.2405C119.748 21.7047 119.576 21.3029 119.231 21.035C118.887 20.7479 118.456 20.6044 117.94 20.6044C116.811 20.6044 116.151 21.1498 115.959 22.2405H119.748ZM140.304 32.2009C138.773 32.2009 137.415 31.9522 136.228 31.4546C135.061 30.9571 134.133 30.2682 133.444 29.3879C132.755 28.5076 132.363 27.5126 132.267 26.4027H138.381C138.458 26.8811 138.659 27.2351 138.984 27.4647C139.328 27.6944 139.759 27.8092 140.276 27.8092C140.601 27.8092 140.859 27.7422 141.051 27.6082C141.242 27.4551 141.338 27.2734 141.338 27.0629C141.338 26.6993 141.137 26.4409 140.735 26.2878C140.333 26.1348 139.654 25.9625 138.697 25.7712C137.529 25.5415 136.563 25.2928 135.798 25.0249C135.051 24.7569 134.391 24.2977 133.817 23.647C133.262 22.9964 132.985 22.097 132.985 20.9488C132.985 19.9538 133.243 19.0544 133.76 18.2506C134.295 17.4278 135.08 16.7867 136.113 16.3274C137.147 15.849 138.4 15.6098 139.874 15.6098C142.055 15.6098 143.758 16.1456 144.983 17.2173C146.227 18.2889 146.973 19.6858 147.222 21.4081H141.567C141.472 20.968 141.271 20.6331 140.964 20.4035C140.658 20.1547 140.247 20.0303 139.73 20.0303C139.405 20.0303 139.156 20.0973 138.984 20.2312C138.812 20.346 138.725 20.5278 138.725 20.7766C138.725 21.1019 138.926 21.3507 139.328 21.5229C139.73 21.676 140.371 21.8387 141.251 22.0109C142.419 22.2405 143.404 22.4989 144.208 22.7859C145.012 23.073 145.71 23.5705 146.303 24.2785C146.897 24.9674 147.193 25.9243 147.193 27.149C147.193 28.1058 146.916 28.9669 146.361 29.7324C145.806 30.4978 145.002 31.1006 143.95 31.5407C142.916 31.9809 141.701 32.2009 140.304 32.2009ZM159.797 26.5749V32H157.386C152.947 32 150.727 29.7898 150.727 25.3693V21.1211H148.718V15.8108H150.727V11.907H157.099V15.8108H159.74V21.1211H157.099V25.4841C157.099 25.8668 157.185 26.1443 157.358 26.3165C157.549 26.4888 157.855 26.5749 158.276 26.5749H159.797ZM169.917 32.2009C168.29 32.2009 166.827 31.866 165.525 31.1963C164.224 30.5265 163.2 29.5697 162.454 28.3258C161.727 27.0629 161.363 25.5894 161.363 23.9054C161.363 22.2214 161.727 20.7575 162.454 19.5136C163.2 18.2506 164.224 17.2843 165.525 16.6145C166.827 15.9447 168.29 15.6098 169.917 15.6098C171.544 15.6098 173.008 15.9447 174.309 16.6145C175.61 17.2843 176.624 18.2506 177.351 19.5136C178.098 20.7575 178.471 22.2214 178.471 23.9054C178.471 25.5894 178.098 27.0629 177.351 28.3258C176.624 29.5697 175.61 30.5265 174.309 31.1963C173.008 31.866 171.544 32.2009 169.917 32.2009ZM169.917 26.6897C170.51 26.6897 171.008 26.4601 171.41 26.0008C171.811 25.5224 172.012 24.8239 172.012 23.9054C172.012 22.9868 171.811 22.2979 171.41 21.8387C171.008 21.3603 170.51 21.1211 169.917 21.1211C169.324 21.1211 168.826 21.3603 168.424 21.8387C168.023 22.2979 167.822 22.9868 167.822 23.9054C167.822 24.8239 168.013 25.5224 168.396 26.0008C168.798 26.4601 169.305 26.6897 169.917 26.6897ZM179.612 23.9054C179.612 22.2214 179.956 20.7575 180.645 19.5136C181.353 18.2506 182.329 17.2843 183.573 16.6145C184.836 15.9447 186.271 15.6098 187.878 15.6098C189.983 15.6098 191.754 16.2031 193.189 17.3895C194.643 18.5759 195.562 20.2217 195.944 22.3266H189.199C188.95 21.4847 188.462 21.0637 187.735 21.0637C187.218 21.0637 186.807 21.3029 186.501 21.7813C186.214 22.2597 186.07 22.9677 186.07 23.9054C186.07 24.8431 186.214 25.5511 186.501 26.0295C186.807 26.5079 187.218 26.7471 187.735 26.7471C188.462 26.7471 188.95 26.3261 189.199 25.4841H195.944C195.562 27.5891 194.643 29.2348 193.189 30.4213C191.754 31.6077 189.983 32.2009 187.878 32.2009C186.271 32.2009 184.836 31.866 183.573 31.1963C182.329 30.5265 181.353 29.5697 180.645 28.3258C179.956 27.0629 179.612 25.5894 179.612 23.9054ZM208.327 32L204.337 25.5415V32H197.964V10.7588H204.337V21.8674L208.384 15.8108H215.79L209.733 23.9628L215.933 32H208.327Z" fill="#07122A"/>
</mask>
<g mask="url(#mask0_68_9)">
<path d="M111.025 74.5293C93.3518 74.5022 76.4136 67.4557 63.9362 54.94C51.4587 42.4243 44.4642 25.4645 44.4913 7.79172C44.5184 -9.8811 51.5648 -26.8193 64.0805 -39.2968C76.5963 -51.7742 93.556 -58.7687 111.229 -58.7416L111.153 -9.34086C106.582 -9.34787 102.196 -7.53879 98.9586 -4.31162C95.7215 -1.08444 93.899 3.29649 93.892 7.86741C93.885 12.4383 95.6941 16.8248 98.9213 20.0619C102.148 23.299 106.529 25.1215 111.1 25.1285L111.025 74.5293Z" fill="#6638EB"/>
<path d="M75.5592 64.2431C62.4785 55.9866 52.6778 43.4366 47.8375 28.745L94.7575 13.2868C96.0094 17.0866 98.5443 20.3326 101.927 22.4681L75.5592 64.2431Z" fill="#38C0EB"/>
<path d="M109.896 74.5293C127.569 74.5022 144.507 67.4557 156.985 54.94C169.462 42.4243 176.456 25.4645 176.429 7.79172C176.402 -9.8811 169.356 -26.8193 156.84 -39.2968C144.324 -51.7742 127.365 -58.7687 109.692 -58.7416L109.768 -9.34086C114.338 -9.34787 118.725 -7.53879 121.962 -4.31162C125.199 -1.08444 127.022 3.29649 127.029 7.86741C127.036 12.4383 125.227 16.8248 121.999 20.0619C118.772 23.299 114.391 25.1215 109.82 25.1285L109.896 74.5293Z" fill="#6638EB"/>
<path d="M145.361 64.2431C158.442 55.9866 168.243 43.4366 173.083 28.745L126.163 13.2868C124.911 17.0866 122.376 20.3326 118.993 22.4681L145.361 64.2431Z" fill="#38C0EB"/>
</g>
</svg>
